<svg width="512" height="512" viewBox="0 0 512 512" fill="none" xmlns="http://www.w3.org/2000/svg">
<path fill-rule="evenodd" clip-rule="evenodd" d="M247.851 337.927L464.642 54.1288C466.793 51.3127 463.2 47.7203 460.384 49.8714L176.586 266.662C173.091 269.332 173.503 274.716 177.364 276.822L188.951 283.142C206.87 292.916 221.597 307.643 231.371 325.562L237.691 337.148C239.797 341.01 245.181 341.422 247.851 337.927ZM202.382 308.731C233.065 339.414 233.065 389.161 202.382 419.844C171.699 450.527 58.2937 481.778 27.6107 451.095C76.1263 411.141 77.3595 378.008 78.3542 351.281C78.9732 334.651 79.4998 320.501 91.2691 308.731C121.952 278.049 171.699 278.049 202.382 308.731Z" fill="white"/>
</svg>
