<svg width="512" height="512" viewBox="0 0 512 512" fill="none" xmlns="http://www.w3.org/2000/svg">
<path fill-rule="evenodd" clip-rule="evenodd" d="M285.947 285.947C334.656 237.239 334.656 158.267 285.947 109.558C237.239 60.8497 158.267 60.8497 109.558 109.558C60.8496 158.267 60.8496 237.239 109.558 285.947C158.267 334.656 237.239 334.656 285.947 285.947ZM303.644 91.8616C353.544 141.762 360.866 218.116 325.612 275.78L440.68 390.849C454.44 404.609 454.44 426.919 440.68 440.68C426.919 454.44 404.609 454.44 390.849 440.68L275.781 325.611C218.116 360.867 141.762 353.544 91.8615 303.644C33.3795 245.162 33.3795 150.344 91.8615 91.8616C150.344 33.3795 245.162 33.3795 303.644 91.8616ZM190.708 97.5479C204.196 97.3953 223.095 100.066 241.192 108.563C260.507 117.632 278.824 133.277 288.916 159.299C290.015 162.134 293.112 163.714 296 162.765C298.889 161.816 300.473 158.694 299.388 155.854C288.166 126.469 267.449 108.727 245.872 98.5961C225.789 89.1661 204.887 86.2754 189.859 86.5485C186.819 86.6037 184.554 89.2615 184.787 92.2932C185.02 95.3249 187.668 97.5823 190.708 97.5479Z" fill="white"/>
</svg>
