<svg width="512" height="512" viewBox="0 0 512 512" fill="none" xmlns="http://www.w3.org/2000/svg">
<path fill-rule="evenodd" clip-rule="evenodd" d="M256.621 33.1321C255.42 31.5562 253.049 31.5562 251.848 33.1321L176.922 131.472C175.418 133.447 176.826 136.291 179.309 136.291H233.989V234.989H135.29L135.29 181.574C135.29 179.091 132.447 177.683 130.472 179.188L32.132 254.114C30.5562 255.314 30.5562 257.686 32.132 258.886L130.472 333.812C132.447 335.317 135.29 333.909 135.29 331.426L135.29 275.48H233.989V376.71H179.309C176.826 376.71 175.418 379.553 176.922 381.528L251.848 479.868C253.049 481.444 255.42 481.444 256.621 479.868L331.547 381.528C333.051 379.553 331.643 376.71 329.161 376.71H274.48V275.48H375.709L375.709 331.426C375.709 333.909 378.553 335.317 380.528 333.812L478.868 258.886C480.444 257.686 480.444 255.314 478.868 254.114L380.528 179.188C378.553 177.683 375.709 179.092 375.709 181.574L375.709 234.989H274.48V136.291H329.161C331.643 136.291 333.051 133.447 331.547 131.472L256.621 33.1321Z" fill="white"/>
</svg>
