<svg width="512" height="512" viewBox="0 0 512 512" fill="none" xmlns="http://www.w3.org/2000/svg">
<path fill-rule="evenodd" clip-rule="evenodd" d="M70.0986 366.212C49.3586 386.952 49.3585 420.578 70.0986 441.318C90.8387 462.058 124.465 462.058 145.205 441.318L312.018 274.505L337.971 300.458C339.802 302.288 342.77 302.288 344.6 300.458L404.712 240.345C406.543 238.515 406.543 235.547 404.712 233.717L277.7 106.704C275.87 104.874 272.902 104.874 271.071 106.704L210.959 166.817C209.129 168.647 209.129 171.615 210.959 173.446L236.912 199.398L70.0986 366.212ZM245.198 207.684L78.3847 374.498C62.2208 390.662 62.2208 416.868 78.3847 433.032C94.5485 449.196 120.755 449.196 136.919 433.032L303.732 266.219L245.198 207.684ZM307.796 136.8L374.498 70.0987C392.95 51.6468 422.866 51.6468 441.318 70.0987C459.77 88.5507 459.77 118.467 441.318 136.919L374.617 203.621L307.796 136.8Z" fill="white"/>
</svg>
