<svg width="512" height="512" viewBox="0 0 512 512" fill="none" xmlns="http://www.w3.org/2000/svg">
<path fill-rule="evenodd" clip-rule="evenodd" d="M278.792 106.636L287.495 130.154L296.197 106.636L319.715 97.9342L296.197 89.2319L287.495 65.7144L278.792 89.2319L255.275 97.9342L278.792 106.636ZM83.436 157.899L131.124 140.253L148.771 92.5643L166.417 140.253L214.105 157.899L166.417 175.545L148.771 223.234L131.124 175.545L83.436 157.899ZM171.468 447.811C170.407 447.811 169.39 447.39 168.64 446.64L91.6339 369.634C90.0718 368.072 90.0718 365.539 91.6339 363.977L330.26 125.351C331.822 123.789 334.355 123.789 335.917 125.351L451.769 241.203C453.331 242.765 453.331 245.298 451.769 246.86L251.989 446.64C251.238 447.39 250.221 447.811 249.16 447.811H171.468ZM186.841 422.64C185.766 422.651 184.732 422.229 183.971 421.469L134.668 372.165C133.106 370.603 133.106 368.071 134.668 366.509L217.611 283.566C219.173 282.003 221.706 282.003 223.268 283.566L297.351 357.649C298.913 359.211 298.913 361.743 297.351 363.306L239.7 420.957C238.96 421.697 237.959 422.118 236.912 422.129L186.841 422.64ZM80.1029 287.921L56.5854 296.623L80.1029 305.325L88.8052 328.843L97.5075 305.325L121.025 296.623L97.5075 287.921L88.8052 264.403L80.1029 287.921Z" fill="white"/>
</svg>
