<svg width="512" height="512" viewBox="0 0 512 512" fill="none" xmlns="http://www.w3.org/2000/svg">
<path fill-rule="evenodd" clip-rule="evenodd" d="M426.208 66C437.139 66 446 75.1892 446 86.5247V91.5297V98.8395V146.026C446 154.944 439.174 162.173 430.753 162.173C422.332 162.173 415.506 154.944 415.506 146.026V98.8395L274.766 98.8395V415.506H366.833C375.578 415.506 382.667 422.333 382.667 430.753C382.667 439.174 375.578 446 366.833 446H145.167C136.422 446 129.333 439.174 129.333 430.753C129.333 422.333 136.422 415.506 145.167 415.506H237.235V98.8395L96.4938 98.8395L96.4938 146.026C96.4938 154.944 89.6676 162.173 81.2469 162.173C72.8263 162.173 66 154.944 66 146.026L66 91.5297C66 91.5203 66 91.5108 66 91.5014L66 86.5247C66 75.1892 74.8611 66 85.7917 66L426.208 66Z" fill="white"/>
</svg>
