<svg width="512" height="512" viewBox="0 0 512 512" fill="none" xmlns="http://www.w3.org/2000/svg">
<path fill-rule="evenodd" clip-rule="evenodd" d="M54.7558 427.712C50.8433 444.057 65.6304 458.741 81.9471 454.714L344.694 389.869C350.823 388.356 356.031 384.331 359.04 378.781L446.387 217.669L479.447 184.609C489.181 174.875 489.181 159.094 479.447 149.36L360.265 30.178C350.531 20.4441 334.749 20.4442 325.016 30.178L291.616 63.578L129.691 147.865C123.926 150.866 119.745 156.22 118.232 162.541L54.7558 427.712ZM89.9052 432.211L339.916 370.509C340.597 370.341 341.176 369.894 341.51 369.278L422.844 219.257L288.799 87.5239L138.898 165.552C138.257 165.886 137.793 166.481 137.625 167.183L78.1089 415.808L204.516 289.402C195.754 273.812 197.982 253.731 211.216 240.497C227.165 224.548 253.058 224.583 269.05 240.575C285.042 256.567 285.077 282.46 269.128 298.408C255.318 312.219 234.052 314.044 218.214 303.903L89.9052 432.211Z" fill="white"/>
</svg>
