<svg width="14" height="12" viewBox="0 0 14 12" fill="none" xmlns="http://www.w3.org/2000/svg">
<path d="M1.72559 9.45703H2.75146V10.2788C2.75146 11.3853 3.31006 11.9438 4.43799 11.9438H12.2744C13.3916 11.9438 13.9556 11.3853 13.9556 10.2788V4.84326C13.9556 3.73682 13.3916 3.17822 12.2744 3.17822H11.2432V2.35645C11.2432 1.25 10.6792 0.691406 9.56201 0.691406H1.72559C0.597656 0.691406 0.0390625 1.25 0.0390625 2.35645V7.79199C0.0390625 8.89844 0.597656 9.45703 1.72559 9.45703ZM1.73633 8.59229C1.19922 8.59229 0.903809 8.30225 0.903809 7.74365V2.40479C0.903809 1.84619 1.19922 1.55615 1.73633 1.55615H9.5459C10.0776 1.55615 10.3784 1.84619 10.3784 2.40479V3.17822H4.43799C3.31006 3.17822 2.75146 3.73145 2.75146 4.84326V8.59229H1.73633ZM3.61621 4.8916C3.61621 4.33301 3.91162 4.04297 4.44873 4.04297H12.2583C12.79 4.04297 13.0908 4.33301 13.0908 4.8916V9.16699L11.1465 7.32471C10.9155 7.10986 10.6309 7.00244 10.3462 7.00244C10.0562 7.00244 9.79297 7.10449 9.55127 7.31934L7.1665 9.43555L6.21045 8.57617C5.99023 8.37744 5.74854 8.27002 5.49609 8.27002C5.25977 8.27002 5.03955 8.37207 4.81396 8.5708L3.61621 9.60742V4.8916ZM6.30176 7.45898C6.98389 7.45898 7.54785 6.89502 7.54785 6.20215C7.54785 5.52002 6.98389 4.95068 6.30176 4.95068C5.60889 4.95068 5.04492 5.52002 5.04492 6.20215C5.04492 6.89502 5.60889 7.45898 6.30176 7.45898Z" fill="#0A84FF"/>
</svg>
