<svg width="12" height="12" viewBox="0 0 12 12" fill="none" xmlns="http://www.w3.org/2000/svg">
<path d="M6 11.7881C8.99707 11.7881 11.4785 9.30127 11.4785 6.30957C11.4785 3.3125 8.9917 0.831055 5.99463 0.831055C3.00293 0.831055 0.521484 3.3125 0.521484 6.30957C0.521484 9.30127 3.0083 11.7881 6 11.7881ZM6 10.875C3.46484 10.875 1.43994 8.84473 1.43994 6.30957C1.43994 3.77441 3.45947 1.74414 5.99463 1.74414C8.52979 1.74414 10.5601 3.77441 10.5654 6.30957C10.5708 8.84473 8.53516 10.875 6 10.875ZM3.19092 6.88965H5.99463C6.2041 6.88965 6.37061 6.72852 6.37061 6.51367V2.89355C6.37061 2.68408 6.2041 2.52295 5.99463 2.52295C5.78516 2.52295 5.62402 2.68408 5.62402 2.89355V6.14307H3.19092C2.97607 6.14307 2.81494 6.3042 2.81494 6.51367C2.81494 6.72852 2.97607 6.88965 3.19092 6.88965Z" fill="#0A84FF"/>
</svg>
