<svg width="24" height="24" viewBox="0 0 24 24" fill="none" xmlns="http://www.w3.org/2000/svg">
<path d="M8.32471 12.2202H16.4253C18.3149 12.2202 19.853 10.8726 19.853 8.88037C19.853 6.88818 18.3149 5.54053 16.4253 5.54053H8.32471C6.43506 5.54053 4.88965 6.88818 4.88965 8.88037C4.88965 10.8726 6.43506 12.2202 8.32471 12.2202ZM8.32471 11.1143C7.09424 11.1143 5.99561 10.2134 5.99561 8.88037C5.99561 7.54736 7.09424 6.64648 8.32471 6.64648H16.4253C17.6484 6.64648 18.7471 7.54736 18.7471 8.88037C18.7471 10.2134 17.6484 11.1143 16.4253 11.1143H8.32471ZM8.32471 10.6162C9.2915 10.6235 10.0605 9.83252 10.0679 8.86572C10.0752 7.90625 9.2915 7.13721 8.32471 7.13721C7.35791 7.13721 6.58887 7.91357 6.58887 8.87305C6.58887 9.83984 7.35791 10.6089 8.32471 10.6162ZM8.02441 19.3687H16.7256C18.4614 19.3687 19.853 18.1528 19.853 16.3584C19.853 14.564 18.4614 13.3481 16.7256 13.3481H8.02441C6.28857 13.3481 4.88965 14.564 4.88965 16.3584C4.88965 18.1528 6.28857 19.3687 8.02441 19.3687ZM16.9087 18.2627C15.854 18.2554 15.0117 17.4058 15.0117 16.3511C15.0117 15.3037 15.854 14.4541 16.9087 14.4541C17.9634 14.4541 18.8203 15.2964 18.813 16.3438C18.8057 17.4058 17.9634 18.27 16.9087 18.2627Z" fill="white" fill-opacity="0.85"/>
</svg>
